<?xml version="1.0" encoding="UTF-8" standalone="no"?>
<!-- Created with Inkscape (http://www.inkscape.org/) -->
<svg
   width="1024"
   height="768"
   viewBox="0 0 1024 768"
   version="1.1"
   id="svg5"
   inkscape:version="1.2 (dc2aeda, 2022-05-15)"
   sodipodi:docname="parinfer-logotype.svg"
   xmlns:inkscape="http://www.inkscape.org/namespaces/inkscape"
   xmlns:sodipodi="http://sodipodi.sourceforge.net/DTD/sodipodi-0.dtd"
   xmlns="http://www.w3.org/2000/svg"
   xmlns:svg="http://www.w3.org/2000/svg">
  <sodipodi:namedview
     id="namedview7"
     pagecolor="#ffffff"
     bordercolor="#000000"
     borderopacity="0.25"
     inkscape:showpageshadow="2"
     inkscape:pageopacity="0.0"
     inkscape:pagecheckerboard="0"
     inkscape:deskcolor="#d1d1d1"
     inkscape:document-units="px"
     showgrid="false"
     showguides="true"
     inkscape:zoom="1.1380208"
     inkscape:cx="520.64073"
     inkscape:cy="388.39359"
     inkscape:window-width="1920"
     inkscape:window-height="1052"
     inkscape:window-x="0"
     inkscape:window-y="0"
     inkscape:window-maximized="0"
     inkscape:current-layer="layer1" />
  <defs
     id="defs2" />
  <g
     inkscape:label="Page"
     inkscape:groupmode="layer"
     id="layer1">
    <g
       inkscape:groupmode="layer"
       id="layer2"
       inkscape:label="bg">
      <rect id="bg-light" width="1024" height="768" style="fill:#FDDEC0" />
      <rect
         style="fill:#000000;stroke:none;stroke-width:0.548;stroke-linejoin:round;stroke-dasharray:none;stroke-opacity:0.816265;paint-order:markers fill stroke"
         id="foot-box"
         width="1024"
         height="99.295197"
         x="0"
         y="668.70483"
         inkscape:label="foot-box" />
      <text
         xml:space="preserve"
         style="font-style:normal;font-variant:normal;font-weight:300;font-stretch:normal;font-size:5.4401px;font-family:'Helvetica Neue';-inkscape-font-specification:'Helvetica Neue Light';fill:#ffffff;stroke:none;stroke-linejoin:round;stroke-opacity:0.816265;paint-order:markers fill stroke"
         x="882.70807"
         y="753.75409"
         id="text186"
         inkscape:label="copyleft"><tspan
           sodipodi:role="line"
           id="copyleft-text"
           x="882.70807"
           y="753.75409"
           style="fill:#ffffff">(c) ocodo/jmilkins 2022 / copyleft CC Attrib/non-comm</tspan><tspan
           sodipodi:role="line"
           x="882.70807"
           y="760.5542"
           id="copyleft"
           style="fill:#ffffff" /></text>
      <path
         id="ocodo"
         style="display:inline;fill:#ffffff;stroke:none;stroke-width:0.165968;stroke-dasharray:none"
         d="m 996.90406,729.78502 -3.16217,3.31664 7e-5,2.18226 c -0.56487,-0.21082 -1.16409,-0.31451 -1.76697,-0.30574 -1.70717,0.0275 -3.27421,0.95039 -4.12619,2.43004 -0.41409,0.72052 -0.63617,1.53533 -0.64492,2.36633 h 3.16304 c 0.0294,-0.91052 0.77529,-1.63384 1.68629,-1.63528 0.91099,10e-4 1.65687,0.72476 1.68629,1.63528 h 0.002 3.16188 z m -6.4269,10.09858 c 0.019,1.71541 0.94243,3.29329 2.42879,4.14987 2.32199,1.337 5.2882,0.53851 6.62521,-1.78348 0.41471,-0.72037 0.63734,-1.53522 0.64664,-2.36639 h -3.1623 c -0.0294,0.91148 -0.77673,1.6352 -1.68868,1.63536 -0.91102,-10e-4 -1.65691,-0.7248 -1.68629,-1.63536 z m 11.30704,-4.9054 c -1.7071,0.0276 -3.27415,0.95039 -4.12612,2.43002 -0.41412,0.72052 -0.6362,1.53535 -0.64498,2.36636 h 3.1631 c 0.029,-0.91054 0.7752,-1.63389 1.6862,-1.63534 0.9111,0.002 1.6569,0.7248 1.6863,1.63534 h 3.1646 c -0.019,-1.71566 -0.9432,-3.29357 -2.43,-4.14983 -0.7593,-0.43725 -1.623,-0.66068 -2.4991,-0.64655 z m -1.4978,4.9054 c 0.019,1.71541 0.9424,3.29329 2.4288,4.14987 2.322,1.33699 5.2882,0.53851 6.6252,-1.78348 0.4147,-0.72037 0.6374,-1.53522 0.6467,-2.36639 h -3.1623 c -0.029,0.91148 -0.7768,1.6352 -1.6887,1.63536 -0.9111,-10e-4 -1.6569,-0.7248 -1.6863,-1.63536 z m -18.121,-4.90542 c -1.70716,0.0276 -3.27418,0.9504 -4.12614,2.43003 -0.41412,0.72052 -0.63621,1.53535 -0.64498,2.36636 h 3.16306 c 0.0294,-0.91054 0.77528,-1.63388 1.68629,-1.63533 0.91101,0.002 1.65689,0.72479 1.68628,1.63533 h 3.16461 c -0.0192,-1.71565 -0.9432,-3.29357 -2.43002,-4.14983 -0.75936,-0.43725 -1.62297,-0.66068 -2.4991,-0.64656 z m -6.27549,0 c -1.70716,0.0276 -3.27418,0.9504 -4.12614,2.43003 -0.41412,0.72052 -0.63621,1.53535 -0.64498,2.36636 h 3.16306 c 0.0294,-0.91054 0.77527,-1.63388 1.68628,-1.63533 0.56694,5e-4 1.09561,0.28618 1.40775,0.75945 0.21135,-1.10462 0.79179,-2.10462 1.64612,-2.83603 -0.19907,-0.16251 -0.41073,-0.30894 -0.633,-0.43792 -0.75936,-0.43725 -1.62296,-0.66068 -2.49909,-0.64656 z m 4.77769,4.90542 c 0.019,1.71541 0.94243,3.29327 2.42878,4.14986 2.322,1.337 5.2882,0.53851 6.62521,-1.78348 0.41472,-0.72037 0.63739,-1.53522 0.64667,-2.36638 h -3.16233 c -0.0294,0.91148 -0.77673,1.6352 -1.68868,1.63536 -0.91103,-10e-4 -1.65691,-0.72481 -1.68629,-1.63536 z m -6.2755,-10e-6 c 0.019,1.71542 0.94243,3.29328 2.42879,4.14987 1.73983,1.00044 3.91606,0.82634 5.4747,-0.43798 -0.8536,-0.7308 -1.4338,-1.72976 -1.64558,-2.83333 -0.31285,0.47241 -0.84164,0.75658 -1.40825,0.7568 -0.91102,-10e-4 -1.65691,-0.72481 -1.68629,-1.63536 z m -8.31145,-4.90541 c -1.70716,0.0276 -3.27418,0.9504 -4.12615,2.43003 -0.41412,0.72052 -0.63621,1.53535 -0.64497,2.36636 h 3.16305 c 0.0294,-0.91054 0.77528,-1.63389 1.68629,-1.63534 0.91102,10e-4 1.6569,0.7248 1.6863,1.63534 h 3.1646 c -0.0192,-1.71565 -0.9432,-3.29357 -2.43003,-4.14983 -0.75936,-0.43725 -1.62296,-0.66068 -2.49909,-0.64656 z m -1.5002,4.90541 c 0.0189,1.71541 0.94243,3.29328 2.42879,4.14986 2.32199,1.337 5.28819,0.53852 6.62521,-1.78347 0.41471,-0.72037 0.63739,-1.53522 0.64666,-2.36639 h -3.16232 c -0.0294,0.91148 -0.77673,1.6352 -1.68869,1.63536 -0.91102,-10e-4 -1.6569,-0.72481 -1.68628,-1.63536 z"
         sodipodi:nodetypes="ccccccccccccccccccccsccccccssccscccccsccccccssscccccccscccccccccccccccsccccccsscccccccc"
         inkscape:label="ocodo" />
      <g
         id="project-info"
         transform="matrix(0.8,0,0,0.8,-48.521022,298.33908)"
         style="fill:#ffffff"
         inkscape:label="project-info">
        <text
           xml:space="preserve"
           style="font-style:normal;font-variant:normal;font-weight:300;font-stretch:normal;font-size:31.8926px;font-family:'Helvetica Neue';-inkscape-font-specification:'Helvetica Neue Light';fill:#ffffff;stroke:none;stroke-width:0.468138;stroke-linejoin:round;stroke-dasharray:none;stroke-opacity:0.816265;paint-order:markers fill stroke"
           x="76.563942"
           y="564.02283"
           id="project-name-text"
           inkscape:label="project-name"><tspan
             sodipodi:role="line"
             id="project-name"
             x="76.563942"
             y="564.02283"
             dx="0 0 0 0 0 0 0 0 0 0 0 0 0"
             style="font-style:normal;font-variant:normal;font-weight:300;font-stretch:normal;font-family:'Helvetica Neue';-inkscape-font-specification:'Helvetica Neue Light';fill:#ffffff;stroke-width:0.468138">Logotype / parinfer</tspan></text>
        <text
           xml:space="preserve"
           style="font-style:normal;font-variant:normal;font-weight:300;font-stretch:normal;font-size:21.3333px;font-family:'Helvetica Neue';-inkscape-font-specification:'Helvetica Neue Light';fill:#ffffff;stroke:none;stroke-width:0.468138;stroke-linejoin:round;stroke-dasharray:none;stroke-opacity:0.816265;paint-order:markers fill stroke"
           x="76.563942"
           y="530.02283"
           id="iteration-text"
           inkscape:label="iteration"><tspan
             sodipodi:role="line"
             id="iteration"
             x="76.563942"
             y="530.02283"
             style="font-style:normal;font-variant:normal;font-weight:300;font-size:21.3333px;font-family:'Helvetica Neue';fill:#ffffff;stroke-width:0.468138">iteration 001 / syntax highlight on light</tspan></text>
      </g>
    </g>
    <g
       id="logo"
       inkscape:label="Logo"
       transform="translate(-2.015641,-0.18257978)">
      <g
         id="abstracted-indents"
         transform="matrix(1.8832272,0,0,1.8832272,-326.32925,-209.87646)"
         inkscape:label="abstracted-indents">
        <rect
           style="fill: #563C7C"
           id="lisp-code-05"
           width="95.049606"
           height="16.992107"
           x="-516.00604"
           y="-348.62106"
           ry="9.0270576"
           rx="9.0270576"
           transform="scale(-1)"
           inkscape:label="lisp-code-05" />
        <rect
           style="fill:#195A73"
           id="lisp-code-04"
           width="95.049606"
           height="16.992107"
           x="-494.76593"
           y="-322.8674"
           ry="9.0270576"
           rx="9.0270576"
           transform="scale(-1)"
           inkscape:label="lisp-code-04" />
        <rect
           style="fill:#563C7C"
           id="lisp-code-03"
           width="73.809494"
           height="16.992107"
           x="-484.14581"
           y="-297.11377"
           ry="9.0270576"
           rx="9.0270576"
           transform="scale(-1)"
           inkscape:label="lisp-code-03" />
        <rect
           style="fill:#195A73"
           id="lisp-code-02"
           width="95.049606"
           height="16.992107"
           x="-494.76593"
           y="-271.36011"
           ry="9.0270576"
           rx="9.0270576"
           inkscape:label="lisp-code-02"
           transform="scale(-1)" />
        <rect
           style="fill:#563C7C"
           id="lisp-code-01"
           width="95.049606"
           height="16.992107"
           x="-473.52582"
           y="-245.60646"
           ry="9.0270576"
           rx="9.0270576"
           transform="scale(-1)"
           inkscape:label="lisp-code-01" />
      </g>
      <g
         id="enclosing-parens"
         inkscape:label="enclosing-parens"
         style="fill:#195A73"
         transform="matrix(-1.8832272,0,0,-1.8832272,1363.9644,867.84542)">
        <path
           d="m 372.50493,195.34375 h 10.59375 q -11.71875,17.4375 -17.0625,29.8125 -5.25,12.375 -7.96875,28.40625 -2.625,15.9375 -2.625,30.84375 0,51.1875 27.65625,87.5625 H 372.50493 L 369.69243,368.5 q -10.59375,-12.75 -15.75,-20.90625 -5.0625,-8.15625 -10.125,-21.1875 -8.15625,-20.8125 -8.15625,-42.5625 0,-22.125 8.15625,-42.65625 8.15625,-20.625 28.6875,-45.84375 z"
           id="left-paren"
           inkscape:label="left-paren" />
        <path
           d="m 530.14639,371.96875 h -10.5 q 12.1875,-18.375 17.34375,-31.21875 5.15625,-12.75 7.6875,-28.03125 2.53125,-15.375 2.53125,-29.4375 0,-16.3125 -3,-31.59375 -2.90625,-15.28125 -8.8125,-28.96875 -5.8125,-13.78125 -15.75,-27.375 h 10.5 l 2.90625,3.46875 q 10.5,12.46875 15.5625,20.625 5.15625,8.15625 10.21875,21.28125 8.15625,20.8125 8.15625,42.9375 0,21.1875 -7.40625,40.78125 -3.65625,9.75 -9.28125,19.40625 -5.53125,9.65625 -20.15625,28.125 z"
           id="right-paren"
           inkscape:label="right-paren" />
      </g>
    </g>
  </g>
</svg>
