<?xml version="1.0" encoding="UTF-8" standalone="no"?>
<!-- Created with Inkscape (http://www.inkscape.org/) -->
<svg
   width="600"
   height="600"
   viewBox="0 0 600 600"
   version="1.1"
   id="svg5"
   inkscape:version="1.2 (dc2aeda, 2022-05-15)"
   sodipodi:docname="parinfer-logotype.svg"
   xmlns:inkscape="http://www.inkscape.org/namespaces/inkscape"
   xmlns:sodipodi="http://sodipodi.sourceforge.net/DTD/sodipodi-0.dtd"
   xmlns="http://www.w3.org/2000/svg"
   xmlns:svg="http://www.w3.org/2000/svg">
  <sodipodi:namedview
     id="namedview7"
     pagecolor="#ffffff"
     bordercolor="#000000"
     borderopacity="0.25"
     inkscape:showpageshadow="2"
     inkscape:pageopacity="0.0"
     inkscape:pagecheckerboard="0"
     inkscape:deskcolor="#d1d1d1"
     inkscape:document-units="px"
     showgrid="false"
     showguides="true"
     inkscape:zoom="1.1380208"
     inkscape:cx="520.64073"
     inkscape:cy="388.39359"
     inkscape:window-width="1920"
     inkscape:window-height="1052"
     inkscape:window-x="0"
     inkscape:window-y="0"
     inkscape:window-maximized="0"
     inkscape:current-layer="layer1" />
  <defs
     id="defs2" />
  <g
     inkscape:label="Page"
     inkscape:groupmode="layer"
     id="layer1">
    <g
       id="logo"
       inkscape:label="Logo"
       transform="translate(-215,-35)">
      <g
         id="abstracted-indents"
         transform="matrix(1.8832272,0,0,1.8832272,-326.32925,-209.87646)"
         inkscape:label="abstracted-indents">
        <rect
           style="fill: #563C7C"
           id="lisp-code-05"
           width="95.049606"
           height="16.992107"
           x="-516.00604"
           y="-348.62106"
           ry="9.0270576"
           rx="9.0270576"
           transform="scale(-1)"
           inkscape:label="lisp-code-05" />
        <rect
           style="fill:#195A73"
           id="lisp-code-04"
           width="95.049606"
           height="16.992107"
           x="-494.76593"
           y="-322.8674"
           ry="9.0270576"
           rx="9.0270576"
           transform="scale(-1)"
           inkscape:label="lisp-code-04" />
        <rect
           style="fill:#563C7C"
           id="lisp-code-03"
           width="73.809494"
           height="16.992107"
           x="-484.14581"
           y="-297.11377"
           ry="9.0270576"
           rx="9.0270576"
           transform="scale(-1)"
           inkscape:label="lisp-code-03" />
        <rect
           style="fill:#195A73"
           id="lisp-code-02"
           width="95.049606"
           height="16.992107"
           x="-494.76593"
           y="-271.36011"
           ry="9.0270576"
           rx="9.0270576"
           inkscape:label="lisp-code-02"
           transform="scale(-1)" />
        <rect
           style="fill:#563C7C"
           id="lisp-code-01"
           width="95.049606"
           height="16.992107"
           x="-473.52582"
           y="-245.60646"
           ry="9.0270576"
           rx="9.0270576"
           transform="scale(-1)"
           inkscape:label="lisp-code-01" />
      </g>
      <g
         id="enclosing-parens"
         inkscape:label="enclosing-parens"
         style="fill:#195A73"
         transform="matrix(-1.8832272,0,0,-1.8832272,1363.9644,867.84542)">
        <path
           d="m 372.50493,195.34375 h 10.59375 q -11.71875,17.4375 -17.0625,29.8125 -5.25,12.375 -7.96875,28.40625 -2.625,15.9375 -2.625,30.84375 0,51.1875 27.65625,87.5625 H 372.50493 L 369.69243,368.5 q -10.59375,-12.75 -15.75,-20.90625 -5.0625,-8.15625 -10.125,-21.1875 -8.15625,-20.8125 -8.15625,-42.5625 0,-22.125 8.15625,-42.65625 8.15625,-20.625 28.6875,-45.84375 z"
           id="left-paren"
           inkscape:label="left-paren" />
        <path
           d="m 530.14639,371.96875 h -10.5 q 12.1875,-18.375 17.34375,-31.21875 5.15625,-12.75 7.6875,-28.03125 2.53125,-15.375 2.53125,-29.4375 0,-16.3125 -3,-31.59375 -2.90625,-15.28125 -8.8125,-28.96875 -5.8125,-13.78125 -15.75,-27.375 h 10.5 l 2.90625,3.46875 q 10.5,12.46875 15.5625,20.625 5.15625,8.15625 10.21875,21.28125 8.15625,20.8125 8.15625,42.9375 0,21.1875 -7.40625,40.78125 -3.65625,9.75 -9.28125,19.40625 -5.53125,9.65625 -20.15625,28.125 z"
           id="right-paren"
           inkscape:label="right-paren" />
      </g>
    </g>
  </g>
</svg>
